# xmcd
#
# Track frame offsets: 
#        150
#        17595
#        37150
#        53237
#        70822
#        88125
#        108765
#        120475
#        135927
#        147462
#        165752
#        185997
#
# Disc length: 2736 seconds
#
# Revision: 9
# Processed by: cddbd v1.5.2PL0 Copyright (c) Steve Scherf et al.
# Submitted via: ExactAudioCopyFreeDBPlugin 1.0
#
DISCID=a00aae0c
DTITLE=Willie Nelson - Stardust [RM 1999]
DYEAR=1978
DGENRE=Country
TTITLE0=Stardust
TTITLE1=Georgia on My Mind
TTITLE2=Blue Skies
TTITLE3=All of Me
TTITLE4=Unchained Melody
TTITLE5=September Song
TTITLE6=On the Sunny Side of the Street
TTITLE7=Moonlight in Vermont
TTITLE8=Don't Get Around Much Anymore
TTITLE9=Someone to Watch over Me
TTITLE10=Scarlet Ribbons
TTITLE11=I Can See Clearly Now
EXTD=
EXTT0=
EXTT1=
EXTT2=
EXTT3=
EXTT4=
EXTT5=
EXTT6=
EXTT7=
EXTT8=
EXTT9=
EXTT10=
EXTT11=
PLAYORDER=
